<?xml version="1.0" standalone="no"?>
<!DOCTYPE svg PUBLIC "-//W3C//DTD SVG 20010904//EN"
 "http://www.w3.org/TR/2001/REC-SVG-20010904/DTD/svg10.dtd">
<svg version="1.0" xmlns="http://www.w3.org/2000/svg"
 width="212.000000pt" height="212.000000pt" viewBox="0 0 212.000000 212.000000"
 preserveAspectRatio="xMidYMid meet">
<metadata>
Created by potrace 1.11, written by Peter Selinger 2001-2013
</metadata>
<g transform="translate(0.000000,212.000000) scale(0.100000,-0.100000)"
fill="#000000" stroke="none">
<path d="M0 1060 l0 -1060 1060 0 1060 0 0 1060 0 1060 -1060 0 -1060 0 0
-1060z m1030 385 c0 -85 -3 -155 -6 -155 -3 0 -17 9 -31 20 -73 57 -179 -15
-138 -94 8 -15 15 -30 15 -32 0 -2 -54 -4 -120 -4 l-120 0 0 210 0 210 200 0
200 0 0 -155z m450 -55 l0 -210 -125 0 c-69 0 -125 4 -125 9 0 5 7 14 15 21
21 18 19 63 -6 94 -25 32 -70 35 -117 6 -18 -11 -35 -20 -37 -20 -3 0 -5 70
-5 155 l0 155 200 0 200 0 0 -210z m-502 -96 c22 -15 52 -63 52 -84 0 -7 -20
-10 -57 -8 -50 3 -59 6 -72 29 -13 24 -13 29 2 53 20 30 43 33 75 10z m216 0
c20 -19 20 -27 1 -64 -14 -27 -20 -30 -65 -30 -54 0 -57 4 -36 54 22 53 69 72
100 40z m-304 -209 c-42 -43 -43 -46 -27 -62 16 -16 21 -14 80 45 34 34 68 62
75 62 10 0 12 -44 10 -192 l-3 -193 -197 -3 -198 -2 0 195 0 195 152 0 152 0
-44 -45z m283 -16 c57 -52 70 -59 83 -48 13 11 9 19 -33 61 l-47 48 152 0 152
0 0 -195 0 -195 -200 0 -200 0 0 195 c0 150 3 195 13 195 7 0 43 -27 80 -61z"/>
</g>
</svg>
